<svg width="130" height="130" viewBox="0 0 130 130" fill="none" xmlns="http://www.w3.org/2000/svg">
<rect width="130" height="130" fill="#031910"/>
<path d="M23.648 94V42.16H30.496V60.848C31.7333 59.6533 33.12 58.6293 34.656 57.776C36.192 56.9227 37.8987 56.496 39.776 56.496C41.2267 56.496 42.336 56.88 43.104 57.648C43.9147 58.416 44.4693 59.376 44.768 60.528C45.1093 61.68 45.28 62.8533 45.28 64.048V94H38.432V66.032C38.432 64.7093 38.24 63.6853 37.856 62.96C37.472 62.2347 36.6827 61.872 35.488 61.872C34.6773 61.872 33.824 62.1067 32.928 62.576C32.0747 63.0453 31.264 63.6213 30.496 64.304V94H23.648ZM65.652 106.416C63.22 106.373 61.2147 105.733 59.636 104.496C58.1 103.301 56.884 101.637 55.988 99.504C55.092 97.3707 54.4307 94.9387 54.004 92.208C53.62 89.4773 53.3853 86.5547 53.3 83.44C53.2147 80.3253 53.172 77.2107 53.172 74.096C53.172 70.9387 53.2147 67.824 53.3 64.752C53.3853 61.6373 53.62 58.7147 54.004 55.984C54.4307 53.2107 55.092 50.7573 55.988 48.624C56.884 46.4907 58.1 44.8053 59.636 43.568C61.2147 42.3307 63.22 41.712 65.652 41.712V46.32C64.1587 46.3627 63.0067 47.216 62.196 48.88C61.3853 50.5013 60.8093 52.656 60.468 55.344C60.1267 58.032 59.9133 61.0187 59.828 64.304C59.7853 67.5467 59.764 70.8107 59.764 74.096C59.764 77.424 59.7853 80.7307 59.828 84.016C59.9133 87.2587 60.1267 90.224 60.468 92.912C60.8093 95.6 61.3853 97.7547 62.196 99.376C63.0067 100.997 64.1587 101.829 65.652 101.872V106.416ZM68.1385 94L76.4585 74.544L68.3305 57.008H74.8585L80.2985 68.72L85.0985 57.008H91.8185L83.3705 75.376L91.9465 94H85.4185L79.5945 81.456L74.6025 94H68.1385ZM94.2935 106.416V101.808C95.8295 101.765 97.0028 100.912 97.8135 99.248C98.6242 97.6267 99.2002 95.472 99.5415 92.784C99.8828 90.096 100.075 87.1093 100.118 83.824C100.203 80.5387 100.246 77.2533 100.246 73.968C100.246 70.64 100.203 67.3547 100.118 64.112C100.075 60.8267 99.8828 57.8613 99.5415 55.216C99.2002 52.528 98.6242 50.3733 97.8135 48.752C97.0028 47.1307 95.8295 46.2987 94.2935 46.256V41.712C96.7682 41.712 98.7735 42.3307 100.31 43.568C101.888 44.7627 103.126 46.4267 104.022 48.56C104.918 50.6933 105.558 53.1467 105.942 55.92C106.368 58.6507 106.624 61.552 106.71 64.624C106.795 67.696 106.838 70.8107 106.838 73.968C106.838 77.1253 106.795 80.2613 106.71 83.376C106.624 86.448 106.368 89.3707 105.942 92.144C105.558 94.9173 104.918 97.3707 104.022 99.504C103.126 101.637 101.888 103.301 100.31 104.496C98.7735 105.733 96.7682 106.373 94.2935 106.416Z" fill="#08D883"/>
</svg>
