<svg width="65" height="64" viewBox="0 0 65 64" fill="none" xmlns="http://www.w3.org/2000/svg">
<path fill-rule="evenodd" clip-rule="evenodd" d="M6.07801 27.4145C5.95651 27.4145 5.92651 27.3535 5.98701 27.263L6.62351 26.4445C6.68351 26.3535 6.83551 26.293 6.95651 26.293H17.775C17.8965 26.293 17.9265 26.384 17.866 26.475L17.351 27.263C17.2905 27.3535 17.139 27.4445 17.048 27.4445L6.07801 27.4145ZM1.50201 30.202C1.38101 30.202 1.35051 30.142 1.41101 30.0505L2.04751 29.2325C2.10801 29.1415 2.25951 29.081 2.38101 29.081H16.199C16.32 29.081 16.381 29.172 16.3505 29.263L16.108 29.99C16.078 30.1115 15.9565 30.172 15.8355 30.172L1.50201 30.202ZM8.83501 32.99C8.71401 32.99 8.68401 32.899 8.74451 32.808L9.16851 32.0505C9.22951 31.9595 9.35051 31.869 9.47201 31.869H15.532C15.6535 31.869 15.714 31.9595 15.714 32.081L15.654 32.808C15.654 32.9295 15.5325 33.0205 15.4415 33.0205L8.83501 32.99ZM40.29 26.869C38.3805 27.354 37.0775 27.7175 35.199 28.202C34.744 28.3235 34.714 28.3535 34.32 27.899C33.8655 27.384 33.532 27.0505 32.896 26.7475C30.9865 25.8085 29.138 26.081 27.411 27.2025C25.3505 28.5355 24.29 30.505 24.32 32.9595C24.35 35.384 26.017 37.384 28.411 37.7175C30.4715 37.99 32.199 37.2625 33.5625 35.7175C33.835 35.384 34.0775 35.0205 34.3805 34.596H28.532C27.896 34.596 27.7445 34.202 27.9565 33.687C28.3505 32.7475 29.0775 31.172 29.5015 30.384C29.593 30.202 29.805 29.899 30.2595 29.899H41.2895C41.2295 30.7175 41.2295 31.5355 41.108 32.354C40.7745 34.5355 39.9565 36.5355 38.623 38.293C36.441 41.172 33.593 42.9595 29.9865 43.4445C27.017 43.8385 24.2595 43.2625 21.8355 41.4445C19.593 39.7475 18.3205 37.505 17.987 34.7175C17.593 31.4145 18.5625 28.4445 20.5625 25.8385C22.714 23.0205 25.5625 21.2325 29.0475 20.596C31.896 20.081 34.623 20.4145 37.0775 22.081C38.6835 23.1415 39.835 24.596 40.5925 26.3535C40.7745 26.6265 40.6535 26.778 40.2895 26.8685L40.29 26.869Z" fill="#F4F8F9"/>
<path d="M50.32 43.6265C47.5625 43.5655 45.047 42.778 42.926 40.9595C41.138 39.4145 40.017 37.4445 39.6535 35.111C39.108 31.687 40.047 28.6565 42.108 25.96C44.32 23.0505 46.9865 21.5355 50.593 20.899C53.6835 20.354 56.593 20.657 59.229 22.4445C61.623 24.081 63.1075 26.293 63.5015 29.202C64.0165 33.293 62.835 36.6265 60.0165 39.475C58.0165 41.505 55.562 42.778 52.744 43.3535C51.926 43.505 51.1075 43.5355 50.32 43.6265ZM57.532 31.384C57.502 30.99 57.502 30.687 57.441 30.384C56.896 27.384 54.138 25.687 51.2595 26.354C48.441 26.99 46.623 28.778 45.9565 31.6265C45.411 33.99 46.5625 36.384 48.744 37.3535C50.411 38.081 52.0775 37.99 53.6835 37.172C56.0775 35.9295 57.3805 33.99 57.532 31.384Z" fill="#F4F8F9"/>
</svg>
