<svg width="64" height="64" viewBox="0 0 64 64" fill="none" xmlns="http://www.w3.org/2000/svg">
<g clip-path="url(#clip0_11_27)">
<path d="M0.703995 0.704002H63.296V63.2965H0.703995V0.704002Z" fill="#F4F8F9"/>
<path d="M58.1735 48.368C57.715 45.5125 55.853 43.114 50.3375 40.8775C48.4215 39.997 46.2855 39.3665 45.649 37.9145C45.423 37.0695 45.393 36.5935 45.536 36.082C45.9465 34.422 47.928 33.9045 49.4985 34.3805C50.51 34.7195 51.4675 35.499 52.045 36.7425C54.746 34.9935 54.7405 35.005 56.6265 33.803C55.936 32.7325 55.5675 32.2385 55.1155 31.7805C53.491 29.966 51.2775 29.0315 47.7375 29.103L45.8935 29.3415C44.1265 29.788 42.4425 30.7155 41.455 31.959C38.492 35.321 39.337 41.205 42.9425 43.6265C46.4945 46.2925 51.7125 46.899 52.379 49.392C53.0275 52.444 50.136 53.432 47.262 53.081C45.144 52.6405 43.966 51.564 42.6925 49.6065C40.3485 50.963 40.3485 50.963 37.9385 52.349C38.51 53.5985 39.1105 54.164 40.0685 55.2465C44.6025 59.8455 55.9485 59.6195 57.9835 52.6585C58.066 52.4195 58.614 50.8255 58.1735 48.368ZM34.731 29.4715H28.8765L28.8525 44.6075C28.8525 47.8265 29.019 50.7775 28.4955 51.682C27.639 53.461 25.4195 53.2405 24.408 52.8955C23.3785 52.3895 22.855 51.67 22.2485 50.653C22.082 50.361 21.957 50.135 21.915 50.1175L17.155 53.0325C17.9465 54.657 19.1125 56.067 20.606 56.983C22.837 58.322 25.8355 58.7325 28.9715 58.0125C31.0125 57.418 32.7735 56.1865 33.6955 54.312C35.0285 51.8545 34.7425 48.88 34.7305 45.59C34.7605 40.2225 34.731 34.856 34.731 29.4715Z" fill="#07090D"/>
</g>
<defs>
<clipPath id="clip0_11_27">
<rect width="64" height="64" fill="white"/>
</clipPath>
</defs>
</svg>
