<svg width="64" height="64" viewBox="0 0 64 64" fill="none" xmlns="http://www.w3.org/2000/svg">
<path fill-rule="evenodd" clip-rule="evenodd" d="M61.629 38.392C61.404 36.933 60.1785 35.9775 58.753 35.913C58.237 35.8895 57.713 35.9435 57.1985 36.009C56.577 36.088 55.963 36.228 55.343 36.3205C54.9145 36.3845 54.48 36.414 54.052 36.458L54.0415 36.4025C54.8405 34.8935 55.673 33.401 56.429 31.8705C57.0085 30.6965 57.5045 29.48 58.017 28.2735C58.865 26.2745 59.5425 24.2135 60.1035 22.119C60.641 20.1135 61.101 18.086 61.2455 16.0055C61.3035 15.1745 61.3435 14.34 61.339 13.508C61.335 12.8445 61.2635 12.18 61.197 11.5185C61.122 10.7605 60.893 10.042 60.576 9.3505C60.158 8.4395 59.51 7.692 58.828 6.982C58.282 6.4135 57.6815 5.8955 57.086 5.378C56.237 4.6395 55.2825 4.05 54.291 3.5265C53.1678 2.92966 51.9779 2.46811 50.746 2.1515C49.9995 1.961 49.236 1.8195 48.48 1.6685C48.208 1.6135 47.9355 1.5 47.6635 1.5H42.543C42.358 1.5 42.1745 1.5955 41.988 1.6165C40.762 1.753 39.5505 1.984 38.374 2.3485C37.934 2.485 37.532 2.399 37.114 2.3605C36.7935 2.331 36.4785 2.245 36.158 2.229C34.937 2.168 33.7145 2.0785 32.494 2.0915C31.3245 2.1035 30.167 2.296 29.035 2.6175C28.0875 2.8865 27.1605 3.215 26.3115 3.713C25.948 3.926 25.66 3.886 25.284 3.7775C24.0205 3.413 22.748 3.0705 21.4645 2.783C20.6645 2.604 19.842 2.515 19.025 2.4295C18.241 2.34802 17.454 2.29898 16.666 2.2825C15.897 2.266 15.1225 2.2665 14.357 2.3345C13.1377 2.4405 11.9359 2.69453 10.778 3.091C9.49564 3.52886 8.29743 4.18242 7.235 5.0235C6.1515 5.881 5.2825 6.928 4.5835 8.1235C3.847 9.385 3.342 10.7355 3.028 12.154C2.858 12.9225 2.7505 13.7125 2.634 14.493C2.5975 14.736 3 14.979 2.5 15.221V18.618C3 18.844 2.604 19.0695 2.633 19.296C2.7025 19.8405 2.764 20.3895 2.856 20.93C3.0015 21.7855 3.174 22.6385 3.35 23.4885C3.59438 24.6765 3.85207 25.8618 4.123 27.044C4.321 27.904 4.5465 28.759 4.7825 29.6095C5.143 30.9085 5.498 32.21 5.9055 33.4945C6.284 34.688 6.7175 35.8645 7.1475 37.041C7.743 38.6685 8.456 40.2435 9.311 41.753C10.0505 43.06 10.8955 44.284 12.029 45.291C12.776 45.9545 13.6075 46.4645 14.5755 46.7195C15.336 46.9195 16.109 46.9435 16.8875 46.784C17.7745 46.6036 18.6031 46.2066 19.2995 45.6285C19.381 45.5615 19.4705 45.5105 19.567 45.6335C19.9345 46.099 20.4265 46.4095 20.941 46.678C22.3295 47.402 23.8425 47.619 25.3795 47.7075C25.7515 47.729 26.1275 47.6755 26.5025 47.665C27.233 47.645 27.943 47.5025 28.6415 47.3005C29.0075 47.1945 29.365 47.06 29.7375 46.9345C29.757 47.331 29.782 47.713 29.7935 48.095L29.8455 50.178C29.855 50.495 29.8675 50.813 29.897 51.1285C29.9725 51.942 30.0465 52.756 30.1435 53.567C30.211 54.126 30.281 54.6895 30.4125 55.235C30.6761 56.3362 31.0372 57.4118 31.4915 58.449C31.9264 59.4558 32.5948 60.3444 33.4415 61.0415C34.5515 61.9595 35.8525 62.351 37.2575 62.4235C37.8385 62.454 38.436 62.4255 39.008 62.3215C39.9171 62.1599 40.8164 61.9471 41.7015 61.684C43.497 61.142 45.049 60.206 46.2085 58.6935C46.8685 57.8315 47.4105 56.899 47.7585 55.8695C48.0455 55.019 48.316 54.16 48.531 53.2895C48.701 52.6035 48.785 51.896 48.8885 51.1955C48.957 50.732 48.998 50.264 49.041 49.797C49.111 49.0385 49.1825 48.2805 49.233 47.5205C49.268 46.9915 49.2665 46.46 49.2875 45.93C49.294 45.7685 49.32 45.608 49.335 45.447C49.349 45.298 49.424 45.2465 49.576 45.249C50.1115 45.257 50.648 45.271 51.182 45.247C51.7805 45.22 52.3845 45.1945 52.9735 45.0955C53.8128 44.9553 54.6453 44.7773 55.4685 44.562C56.44 44.308 57.331 43.853 58.1885 43.3345C59.1875 42.731 60.098 42.023 60.837 41.111C61.4795 40.3155 61.784 39.396 61.629 38.392ZM59.923 38.883C59.89 39.3405 59.6805 39.7325 59.3765 40.0675C57.942 41.649 56.1425 42.6085 54.084 43.081C53.302 43.26 52.495 43.353 51.6945 43.427C51.0106 43.4872 50.3235 43.5034 49.6375 43.4755C49.1345 43.4565 48.6355 43.3415 48.1215 43.2675C48.07 43.7375 48.021 44.227 47.9615 44.7155L47.722 46.588C47.6495 47.1815 47.593 47.777 47.5185 48.37C47.4455 48.9455 47.3545 49.519 47.278 50.0945C47.2065 50.6305 47.154 51.169 47.0745 51.704C46.952 52.524 46.835 53.346 46.675 54.1595C46.483 55.132 46.1885 56.074 45.708 56.951C45.122 58.0215 44.291 58.837 43.2335 59.441C42.1435 60.064 40.952 60.388 39.744 60.659C38.889 60.851 38.008 60.8825 37.142 60.8045C35.64 60.6685 34.358 60.026 33.389 58.8615C32.464 57.75 31.838 56.476 31.614 55.034C31.5094 54.3476 31.4276 53.6578 31.3685 52.966C31.3022 52.1972 31.2523 51.427 31.219 50.656C31.1747 49.6779 31.1418 48.6994 31.1205 47.7205C31.094 46.5175 31.0855 45.3145 31.0685 44.1115L31.0655 44.0655C30.4535 44.4325 29.852 44.8345 29.214 45.1655C28.4684 45.5512 27.6522 45.7813 26.815 45.842C26.156 45.892 25.4885 45.9375 24.8325 45.885C23.757 45.7985 22.6825 45.63 21.7195 45.1005C21.329 44.8855 20.9215 44.624 20.6525 44.2805C20.0075 43.4575 20.3165 42.4175 21.289 41.917C21.961 41.5705 22.6945 41.426 23.423 41.2575C24.0571 41.1136 24.6845 40.942 25.3035 40.743C25.9145 40.543 26.3 40.0475 26.6805 39.5615L27.2835 38.786C27.032 38.7595 26.795 38.7325 26.558 38.7105C25.8385 38.6425 25.152 38.4445 24.4955 38.1535C23.9335 37.905 23.925 37.878 23.513 38.325C22.825 39.072 22.156 39.8365 21.482 40.596C20.986 41.1545 20.493 41.7165 19.9995 42.2765C19.5105 42.8305 19.0525 43.416 18.526 43.9315C17.744 44.697 16.8015 45.1575 15.677 45.1055C14.9555 45.0725 14.295 44.8195 13.701 44.406C12.475 43.552 11.649 42.3575 10.897 41.103C9.9335 39.4955 9.194 37.783 8.561 36.0235C8.123 34.8075 7.683 33.5905 7.3005 32.357C6.885 31.0165 6.5205 29.659 6.162 28.302C5.89421 27.2768 5.64716 26.2462 5.421 25.211C5.15728 24.0353 4.91325 22.8553 4.689 21.6715C4.54 20.872 4.4535 20.061 4.333 19.256C4.1705 18.171 4.1405 17.076 4.1995 15.9865C4.252 15.005 4.393 14.026 4.533 13.051C4.727 11.702 5.1715 10.429 5.811 9.227C6.2025 8.4905 6.6885 7.821 7.2505 7.199C8.173 6.178 9.2895 5.44 10.5315 4.886C11.3995 4.499 12.3165 4.266 13.251 4.084C14.638 3.814 16.0375 3.8245 17.4375 3.8535C18.0495 3.866 18.659 3.9775 19.2705 4.038C20.587 4.169 21.8775 4.446 23.1515 4.788C24.08 5.037 24.9895 5.3595 25.9105 5.6395C26.003 5.6675 26.1385 5.665 26.214 5.6155C27.462 4.801 28.826 4.2635 30.2765 3.956C30.827 3.8395 31.395 3.7885 31.958 3.7525C32.6425 3.709 33.3325 3.669 34.0155 3.7085C34.8365 3.7555 35.6535 3.8765 36.4695 3.9885C36.8655 4.0425 37.252 4.18 37.649 4.2175C37.839 4.2355 38.0405 4.0965 38.2415 4.05C39.266 3.8135 40.286 3.55 41.3195 3.363C42.089 3.224 42.875 3.1585 43.6575 3.1135C44.53 3.0635 45.409 3.027 46.281 3.069C47.3852 3.12368 48.4822 3.27814 49.5585 3.5305C50.897 3.842 52.181 4.2945 53.4015 4.9225C54.3135 5.3915 55.1805 5.9355 55.961 6.6045C56.4725 7.0435 56.996 7.477 57.458 7.966C58.028 8.569 58.6095 9.1725 58.967 9.945C59.236 10.5275 59.428 11.1305 59.481 11.7685C59.547 12.5615 59.627 13.3575 59.6195 14.1515C59.6125 14.911 59.509 15.67 59.4355 16.4275C59.2685 18.1545 58.893 19.844 58.437 21.511C58.0555 22.888 57.6238 24.2506 57.1425 25.596C56.703 26.8365 56.196 28.0545 55.6835 29.2675C55.3062 30.166 54.8963 31.0504 54.4545 31.919C53.616 33.562 52.744 35.188 51.7355 36.7355C51.5615 37.003 51.3965 37.277 51.2265 37.55C51.6665 37.847 52.165 37.9515 52.667 38.0055C53.1445 38.0575 53.6315 38.0885 54.1085 38.053C54.872 37.9965 55.633 37.8875 56.392 37.781C57.144 37.676 57.881 37.462 58.653 37.5185C59.424 37.5745 59.9755 38.1605 59.923 38.883ZM48.9165 37.2065C48.589 36.7835 48.255 36.3655 47.9345 35.9375C47.4315 35.2655 47.07 34.515 46.707 33.761C46.363 33.0465 45.941 32.37 45.5785 31.6635C44.946 30.431 44.302 29.2025 43.7195 27.946C42.987 26.3675 42.4095 24.733 42.2275 22.9845C42.1505 22.2445 42.131 21.5055 42.2805 20.7725C42.52 19.602 43.1315 18.6865 44.1595 18.0585C45.113 17.476 46.1755 17.288 47.264 17.229C47.9395 17.1925 48.618 17.2225 49.319 17.2225L49.2955 17.104C48.8595 16.1925 48.452 15.2655 47.975 14.3755C47.302 13.1195 46.441 11.987 45.482 10.937C44.7715 10.1595 44.002 9.438 43.159 8.8005C42.33 8.173 41.4565 7.6125 40.5245 7.154C39.413 6.6075 38.2555 6.185 37.041 5.9155C35.874 5.6565 34.6995 5.498 33.5025 5.485C32.4815 5.474 31.467 5.52 30.4725 5.7505C28.9715 6.098 27.5985 6.716 26.404 7.717C25.7431 8.27124 25.1526 8.90428 24.6455 9.602C24.0475 10.4235 23.565 11.3105 23.1525 12.2405C22.5865 13.5165 22.198 14.8445 21.9325 16.2095C21.7995 16.89 21.6955 17.5765 21.5895 18.2625C21.5525 18.5025 21.5495 18.748 21.528 19.023C21.7125 18.927 21.8455 18.853 21.9815 18.787L22.424 18.5885C23.9205 17.904 25.471 17.4635 27.1375 17.514C27.8455 17.5355 28.523 17.6755 29.1525 17.9855C30.36 18.581 31.0665 19.5935 31.3735 20.875C31.5855 21.7595 31.7305 22.6615 31.8715 23.561C31.982 24.2635 32.095 24.9735 32.108 25.682C32.1265 26.7175 32.074 27.755 32.0175 28.79C31.969 29.6701 31.7869 30.5377 31.4775 31.363C30.9175 32.8595 30.2935 34.3315 29.7105 35.8195C29.518 36.311 29.37 36.82 29.188 37.3605C29.469 37.3605 29.697 37.3585 29.925 37.3615C30.014 37.363 30.105 37.3655 30.191 37.386C30.861 37.544 31.442 37.8475 31.9185 38.363C32.554 39.049 32.8875 39.8495 32.9045 40.776C32.914 41.2895 32.86 41.8045 32.8625 42.318C32.873 44.711 32.891 47.104 32.911 49.4965C32.9145 49.8875 32.934 50.279 32.962 50.6695C33.0205 51.487 33.0795 52.305 33.1595 53.1205C33.2155 53.699 33.2935 54.2765 33.385 54.851C33.5145 55.665 33.885 56.3895 34.3055 57.082C34.6675 57.6775 35.138 58.1835 35.758 58.5325C36.8115 59.1255 37.946 59.175 39.0895 58.9565C39.862 58.809 40.6205 58.572 41.3705 58.3275C42.108 58.0909 42.7815 57.6882 43.339 57.1505C43.8645 56.641 44.2375 56.02 44.489 55.3345C44.977 54.005 45.129 52.605 45.331 51.216C45.4065 50.696 45.472 50.1745 45.541 49.6535C45.6195 49.0605 45.699 48.468 45.775 47.8755C45.831 47.434 45.882 46.9915 45.936 46.55C46.013 45.916 46.0945 45.2825 46.168 44.648C46.2245 44.1575 46.2725 43.665 46.3225 43.1735C46.387 42.5455 46.4565 41.9175 46.512 41.2885C46.555 40.811 46.5375 40.325 46.622 39.8565C46.7775 38.9975 47.1835 38.2665 47.945 37.794C48.2635 37.5965 48.623 37.4665 48.9765 37.2995L48.9165 37.2065ZM20.118 33.6805C19.7382 32.7875 19.5095 31.8375 19.441 30.8695C19.377 29.957 19.4855 29.048 19.579 28.1395C19.67 27.2595 19.7455 26.3755 19.772 25.4915C19.816 24.0385 19.718 22.5875 19.6485 21.1355C19.6065 20.271 19.707 19.396 19.784 18.5295C19.8535 17.749 19.94 16.9665 20.0875 16.1975C20.335 14.907 20.6635 13.635 21.1305 12.402C21.574 11.233 22.0835 10.0945 22.803 9.0695C23.296 8.3665 23.8555 7.7095 24.393 7.0225L24.2335 6.966C22.4845 6.4105 20.707 5.9765 18.879 5.787C18.0145 5.6975 17.147 5.645 16.28 5.5935C16.014 5.5775 15.744 5.6135 15.477 5.639C14.816 5.702 14.147 5.727 13.4965 5.851C12.3895 6.0615 11.3275 6.4155 10.344 6.992C9.461 7.5095 8.7195 8.1785 8.0985 8.981C7.4125 9.867 6.951 10.869 6.6195 11.9375C6.228 13.198 6.0415 14.495 5.991 15.804C5.947 16.9515 5.925 18.1055 6.123 19.2485C6.2705 20.0995 6.369 20.9595 6.5315 21.807C6.753 22.9625 6.9905 24.1155 7.265 25.259C7.6575 26.896 8.0495 28.5355 8.5145 30.1525C8.9595 31.702 9.4615 33.2375 10.0055 34.7545C10.4505 35.9925 10.965 37.2075 11.507 38.4065C11.86 39.1875 12.2875 39.939 12.7355 40.6705C13.212 41.447 13.754 42.184 14.4895 42.7475C15.4175 43.459 16.136 43.5695 17.079 42.789C17.483 42.4545 17.8245 42.0415 18.176 41.648C18.7345 41.023 19.2735 40.381 19.8295 39.754C20.5375 38.955 21.2545 38.1645 21.966 37.3695C22.1165 37.2015 22.261 37.0285 22.4075 36.8585L22.1655 36.646C21.2868 35.8084 20.5898 34.799 20.118 33.6805ZM46.962 9.896C47.5437 10.5723 48.0958 11.2737 48.6165 11.998C49.6165 13.4025 50.4155 14.919 51.004 16.5415C51.2645 17.2565 51.4725 17.9785 51.3795 18.761C51.315 19.309 51.3205 19.865 51.272 20.416C51.2315 20.8745 51.159 21.3305 51.0995 21.7875C51.0105 22.4765 50.8815 23.1635 50.843 23.8555C50.8065 24.514 50.8445 25.1795 50.886 25.8395C50.928 26.51 51.0185 27.1775 51.08 27.847C51.1495 28.606 51.243 29.365 51.2645 30.1255C51.282 30.75 51.2265 31.3785 51.172 32.002C51.107 32.753 50.9165 33.48 50.6325 34.1775C50.433 34.6685 50.1945 35.1445 49.969 35.636L50.0595 35.732L50.197 35.8385L50.3355 35.5905C51.5051 33.7498 52.5446 31.8296 53.4465 29.844C54.0236 28.5622 54.5715 27.2676 55.09 25.961C55.902 23.929 56.5445 21.84 57.0415 19.7095C57.2645 18.753 57.435 17.782 57.5865 16.811C57.7045 16.052 57.803 15.284 57.825 14.518C57.8485 13.7055 57.8035 12.8865 57.7285 12.076C57.6725 11.464 57.5215 10.848 57.138 10.3505C56.5215 9.5495 55.856 8.7835 55.0375 8.1775C54.3485 7.667 53.662 7.1435 52.9225 6.714C51.75 6.034 50.481 5.581 49.155 5.2725C47.861 4.971 46.55 4.841 45.2305 4.8135C44.4525 4.797 43.671 4.8805 42.8945 4.9535C42.191 5.0195 41.492 5.132 40.7835 5.225C41.5435 5.6525 42.293 6.0325 43 6.4805C44.4865 7.422 45.8185 8.555 46.962 9.896ZM27.6495 36.257C28.13 34.7205 28.7845 33.2535 29.4185 31.7775C29.9325 30.5805 30.2135 29.3195 30.307 28.0245C30.3535 27.386 30.3405 26.7395 30.309 26.099C30.2777 25.3864 30.2123 24.6758 30.113 23.9695C29.98 23.069 29.8285 22.168 29.6155 21.284C29.3845 20.3275 28.802 19.6615 27.804 19.416C27.196 19.2665 26.592 19.2725 25.9775 19.3695C24.4765 19.606 23.1025 20.159 21.8225 20.969C21.565 21.132 21.4235 21.2635 21.468 21.633C21.562 22.4155 21.5825 23.2105 21.579 24.0005C21.574 25.1185 21.5265 26.2365 21.484 27.354C21.47 27.718 21.4175 28.08 21.3785 28.4425C21.3185 28.9975 21.203 29.552 21.2065 30.106C21.21 30.677 21.2685 31.2615 21.407 31.8145C21.847 33.568 22.779 35.003 24.3065 36.0155C25.246 36.638 26.2855 36.952 27.4265 37.0115C27.504 36.7495 27.573 36.502 27.6495 36.257ZM25.8565 21.2135C25.6555 20.7915 25.7705 20.442 26.2365 20.28C26.35 20.24 26.467 20.1975 26.585 20.186C26.747 20.17 26.912 20.182 27.076 20.182C27.667 20.185 28.2355 20.2675 28.7235 20.6435C29.0365 20.8845 29.1205 21.2045 28.918 21.533C28.6305 21.999 28.192 22.233 27.6535 22.278C26.805 22.3485 26.2095 21.953 25.8565 21.2135ZM49.3765 21.0595C49.4445 20.4975 49.499 19.934 49.5685 19.372C49.5965 19.146 49.4775 19.085 49.288 19.0795C48.692 19.063 48.096 19.042 47.5 19.031C46.828 19.019 46.174 19.127 45.552 19.3825C44.862 19.6665 44.3365 20.1215 44.122 20.8725C43.9651 21.4263 43.9153 22.005 43.9755 22.5775C44.059 23.4627 44.2596 24.333 44.572 25.1655C44.989 26.276 45.4255 27.386 45.947 28.45C46.6535 29.8905 47.453 31.285 48.2035 32.7035C48.404 33.082 48.5725 33.477 48.7815 33.919C49.2029 33.0403 49.4331 32.0822 49.457 31.108C49.4775 30.303 49.413 29.4945 49.366 28.689C49.3365 28.196 49.267 27.706 49.219 27.214C49.152 26.5285 49.0505 25.8435 49.035 25.1565C49.0195 24.458 49.069 23.7555 49.129 23.058C49.1855 22.389 49.296 21.7255 49.3765 21.0595ZM48.032 20.5185C47.8105 21.13 47.337 21.475 46.723 21.5765C46.1505 21.6705 45.649 21.459 45.276 21.0025C45.0105 20.6775 45.112 20.2925 45.51 20.073C45.967 19.82 46.4695 19.756 47.062 19.7175C47.223 19.747 47.4655 19.7715 47.696 19.8375C48.0305 19.932 48.154 20.1835 48.032 20.5185ZM30.321 39.3485C29.9935 39.081 29.5605 39.0655 29.249 39.359C28.8625 39.724 28.5225 40.1415 28.1825 40.553C27.79 41.0285 27.422 41.523 26.9155 41.8915C26.1785 42.427 25.3195 42.649 24.456 42.859C23.7695 43.026 23.08 43.181 22.3915 43.3415L22.383 43.4305C22.5875 43.525 22.7855 43.643 22.9985 43.7105C24.0485 44.043 25.1165 44.2085 26.226 44.1145C27.027 44.0465 27.79 43.872 28.513 43.529C29.508 43.0575 30.2735 42.3105 30.9245 41.4415C31.0335 41.2965 31.083 41.082 31.096 40.895C31.1405 40.2345 30.805 39.7435 30.321 39.3485ZM56.1965 39.6115C55.3515 39.702 54.5055 39.798 53.658 39.8465C53.249 39.87 52.834 39.792 52.421 39.7585C51.7285 39.7025 51.0525 39.5485 50.467 39.1785C50.128 38.965 49.8465 38.941 49.4865 39.062C48.9725 39.235 48.553 39.498 48.429 40.055C48.3445 40.4315 48.314 40.8215 48.28 41.207C48.2735 41.275 48.3585 41.4 48.4235 41.417C48.82 41.5215 49.2185 41.645 49.624 41.6815C50.122 41.7265 50.629 41.712 51.1305 41.687C51.672 41.66 52.217 41.625 52.7505 41.535C54.008 41.324 55.2245 40.98 56.305 40.267C56.6945 40.0095 57.0805 39.7465 57.4675 39.486L57.4355 39.431C57.0225 39.4925 56.6115 39.5675 56.1965 39.6115Z" fill="#F4F8F9"/>
</svg>
