<svg width="64" height="64" viewBox="0 0 64 64" fill="none" xmlns="http://www.w3.org/2000/svg">
<path d="M32 37.7C35.148 37.7 37.7 35.148 37.7 32C37.7 28.852 35.148 26.3 32 26.3C28.852 26.3 26.3 28.852 26.3 32C26.3 35.148 28.852 37.7 32 37.7Z" fill="#F4F8F9"/>
<path d="M53.65 22.6C52.55 22.2 51.4 21.8 50.2 21.45C50.5 20.25 50.75 19.05 50.95 17.9C52 11.3 50.85 6.65 47.65 4.85C46.7 4.3 45.65 4.05 44.45 4.05C40.95 4.05 36.5 6.65 32 11C27.5 6.65 23.05 4.05 19.55 4.05C18.35 4.05 17.3 4.3 16.35 4.85C13.15 6.7 12 11.35 13.05 17.9C13.25 19.05 13.5 20.25 13.8 21.45C12.6 21.8 11.45 22.15 10.35 22.6C4.10001 25 0.700012 28.3 0.700012 32C0.700012 35.7 4.15001 39 10.35 41.4C11.45 41.8 12.6 42.2 13.8 42.55C13.5 43.75 13.25 44.95 13.05 46.1C12 52.7 13.15 57.35 16.35 59.15C17.3 59.7 18.35 59.95 19.55 59.95C23.1 59.95 27.55 57.35 32 53C36.5 57.35 40.95 59.95 44.45 59.95C45.65 59.95 46.7 59.7 47.65 59.15C50.85 57.3 52 52.65 50.95 46.1C50.75 44.95 50.5 43.75 50.2 42.55C51.4 42.2 52.55 41.85 53.65 41.4C59.9 39 63.3 35.7 63.3 32C63.3 28.3 59.9 25 53.65 22.6ZM46.25 7.35C48.3 8.55 49 12.25 48.15 17.5C48 18.55 47.75 19.65 47.45 20.8C44.85 20.2 42.1 19.8 39.2 19.55C37.5 17.15 35.75 15 34 13.05C37.7 9.4 41.45 6.9 44.5 6.9C45.15 6.9 45.75 7.05 46.25 7.35ZM40.65 37C39.75 38.6 38.7 40.2 37.6 41.8C35.75 41.95 33.9 42 32 42C30.05 42 28.2 41.95 26.4 41.8C25.3 40.2 24.3 38.6 23.4 37C22.45 35.35 21.55 33.65 20.75 32C21.55 30.35 22.45 28.65 23.4 27C24.3 25.4 25.35 23.8 26.45 22.2C28.3 22.05 30.15 22 32.05 22C34 22 35.85 22.05 37.65 22.2C38.75 23.8 39.75 25.4 40.65 27C41.6 28.65 42.5 30.35 43.3 32C42.45 33.65 41.6 35.3 40.65 37ZM44.8 35.35C45.55 37.1 46.15 38.8 46.7 40.5C45 40.9 43.2 41.2 41.3 41.45C41.9 40.5 42.55 39.5 43.1 38.45C43.7 37.4 44.25 36.35 44.8 35.35ZM32 48.9C30.8 47.6 29.65 46.2 28.55 44.75C29.7 44.8 30.85 44.85 32 44.85C33.15 44.85 34.3 44.8 35.45 44.75C34.35 46.2 33.2 47.6 32 48.9ZM22.7 41.4C20.8 41.15 19 40.85 17.3 40.45C17.85 38.8 18.45 37.05 19.2 35.3C19.75 36.3 20.3 37.35 20.9 38.35C21.5 39.45 22.1 40.4 22.7 41.4ZM19.2 28.65C18.45 26.9 17.85 25.2 17.3 23.5C19 23.1 20.8 22.8 22.7 22.55C22.1 23.5 21.45 24.5 20.9 25.55C20.3 26.6 19.75 27.65 19.2 28.65ZM32 15.1C33.2 16.4 34.35 17.8 35.45 19.25C34.3 19.2 33.15 19.15 32 19.15C30.85 19.15 29.7 19.2 28.55 19.25C29.65 17.8 30.8 16.4 32 15.1ZM43.1 25.6L41.3 22.6C43.2 22.85 45 23.15 46.7 23.55C46.15 25.2 45.55 26.95 44.8 28.7C44.25 27.65 43.7 26.6 43.1 25.6ZM15.85 17.5C15 12.25 15.7 8.55 17.75 7.35C18.25 7.05 18.85 6.9 19.5 6.9C22.5 6.9 26.25 9.35 30 13.05C28.25 14.95 26.5 17.15 24.8 19.55C21.9 19.8 19.15 20.25 16.55 20.8C16.25 19.65 16.05 18.55 15.85 17.5ZM3.50001 32C3.50001 29.65 6.35001 27.15 11.35 25.3C12.35 24.9 13.45 24.55 14.55 24.25C15.35 26.75 16.35 29.4 17.55 32.05C16.35 34.7 15.3 37.3 14.55 39.8C7.65001 37.8 3.50001 34.8 3.50001 32ZM17.75 56.65C15.7 55.45 15 51.75 15.85 46.5C16 45.45 16.25 44.35 16.55 43.2C19.15 43.8 21.9 44.2 24.8 44.45C26.5 46.85 28.25 49 30 50.95C26.3 54.6 22.55 57.1 19.5 57.1C18.85 57.1 18.25 56.95 17.75 56.65ZM48.15 46.5C49 51.75 48.3 55.45 46.25 56.65C45.75 56.95 45.15 57.1 44.5 57.1C41.5 57.1 37.75 54.65 34 50.95C35.75 49.05 37.5 46.85 39.2 44.45C42.1 44.2 44.85 43.75 47.45 43.2C47.75 44.35 47.95 45.45 48.15 46.5ZM52.65 38.7C51.65 39.1 50.55 39.45 49.45 39.75C48.65 37.25 47.65 34.6 46.45 31.95C47.65 29.3 48.7 26.7 49.45 24.2C56.35 26.2 60.5 29.2 60.5 32C60.5 34.35 57.6 36.85 52.65 38.7Z" fill="#F4F8F9"/>
</svg>
