<svg width="64" height="64" viewBox="0 0 64 64" fill="none" xmlns="http://www.w3.org/2000/svg">
<g clip-path="url(#clip0_11_30)">
<path d="M11.335 23.5H61.17V60.335H11.335V23.5Z" fill="#07090D"/>
<path d="M0.75 31.955V63.205H63.25V0.705002H0.75V31.955ZM51.115 29.455C52.6119 29.8024 53.9725 30.5853 55.025 31.705C55.6044 32.3082 56.1081 32.9798 56.525 33.705C56.525 33.785 53.825 35.61 52.18 36.63C52.12 36.67 51.88 36.41 51.615 36.015C51.3147 35.4968 50.888 35.0632 50.3748 34.7546C49.8615 34.4459 49.2785 34.2723 48.68 34.25C46.785 34.12 45.565 35.115 45.575 36.75C45.5593 37.1571 45.6525 37.561 45.845 37.92C46.26 38.785 47.035 39.3 49.465 40.35C53.94 42.275 55.855 43.545 57.045 45.35C58.375 47.35 58.67 50.58 57.77 52.97C56.77 55.57 54.32 57.335 50.855 57.92C49.2724 58.1013 47.6734 58.0845 46.095 57.87C43.6758 57.4712 41.4474 56.3097 39.735 54.555C39.16 53.92 38.04 52.265 38.11 52.145C38.2925 52.0095 38.4847 51.8875 38.685 51.78L41 50.5L42.795 49.46L43.17 50.015C43.8029 50.9203 44.6083 51.6917 45.54 52.285C47.54 53.335 50.27 53.19 51.62 51.975C52.0733 51.5298 52.356 50.9397 52.4191 50.3075C52.4821 49.6753 52.3214 49.041 51.965 48.515C51.465 47.82 50.465 47.235 47.67 46.015C44.445 44.625 43.055 43.765 41.785 42.395C40.9922 41.4909 40.4068 40.4243 40.07 39.27C39.8188 37.9512 39.7816 36.6006 39.96 35.27C40.625 32.155 42.96 29.98 46.37 29.335C47.9492 29.1396 49.5489 29.1834 51.115 29.465V29.455ZM36.445 32.075V34.635H28.33V57.75H22.575V34.63H14.44V32.13C14.4147 31.2679 14.4347 30.405 14.5 29.545C14.54 29.5 19.5 29.5 25.5 29.5H36.415L36.445 32.075Z" fill="#F4F8F9"/>
</g>
<defs>
<clipPath id="clip0_11_30">
<rect width="64" height="64" fill="white"/>
</clipPath>
</defs>
</svg>
