<svg width="64" height="64" viewBox="0 0 64 64" fill="none" xmlns="http://www.w3.org/2000/svg">
<path d="M12.55 8.85001L19.25 8.90001C16.8 11.35 15.35 14.5 14.85 18.05L12.3 18C9.54995 17.9 7.39995 15.85 7.44995 13.35C7.44995 10.8 9.69995 8.85001 12.55 8.85001ZM32.65 47.45C33.1 48.55 36.1 54.65 36.1 54.65H27.55C27.55 54.65 30.3 48.9 30.9 47.45C31.4 46.35 32.15 46.3 32.65 47.45Z" fill="white"/>
<path d="M57.45 23.95C56.9 26.1 54.7 27.7 52 27.7H49.5C49.35 27.75 49.2499 27.85 49.2999 28V54.65H44.75L36 36.55C36.9 35.55 37.45 34.2 37.45 32.75C37.45 30.35 36.05 28.2 33.95 27.35V24.9C33.95 23.85 33.05 23.1 32 23.1H31.9C30.85 23.1 29.95 24 29.95 25.05V27.35C27.65 28.1 25.95 30.25 25.95 32.85C25.95 34.35 26.55 35.75 27.5 36.75L19 54.7H11.55C8.69995 54.7 6.44995 52.4 6.44995 49.55V14.85C6.44995 14.85 6.44995 14.55 6.49995 14.85C6.89995 17.25 8.99995 19.1 11.55 19.15H50C49.95 19.15 57.3 18.5 57.45 23.95Z" fill="white"/>
<path d="M31.65 29.9C33.2 29.9 34.5001 31.2 34.4501 32.8C34.4501 34.35 33.15 35.65 31.55 35.6C30 35.6 28.75 34.3 28.75 32.75C28.75 32 29.05 31.3 29.6 30.75C30.2 30.2 30.9 29.9 31.65 29.9ZM32.8 28.25V25.25C32.8 24.9 32.65 24.6 32.35 24.45C31.9 24.2 31.35 24.35 31.1 24.8C31 24.95 30.95 25.1 31 25.3V28.2C28.5 28.6 26.75 30.95 27.15 33.5V33.55C27.35 34.75 28 35.85 29 36.55L18.35 59.4C17.95 60.2 18 61.2 18.55 61.95C19.35 63.1 20.9 63.4 22.05 62.6C22.45 62.35 22.7501 61.95 22.9501 61.55L30 46.25C30.45 45.25 31.6501 44.8 32.7001 45.3C33.1001 45.5 33.4501 45.85 33.6501 46.25L40.9001 61.4C41.5001 62.65 43 63.15 44.25 62.55C45.5 61.95 46.0001 60.45 45.4001 59.2L34.5 36.45C36.5 34.85 36.85 31.9 35.25 29.9C34.65 29.1 33.8 28.55 32.8 28.25ZM39.8 6.45H39.75L42.4001 1.85C42.5501 1.6 42.45 1.3 42.25 1.1C42 1 41.75 1.05 41.6 1.25L38.8 6C34.45 4.05 29.45 4.05 25.05 6L22.35 1.3C22.25 1.15 22.05 1 21.85 1C21.65 1 21.45 1.1 21.35 1.3C21.25 1.5 21.25 1.7 21.35 1.85L24.05 6.45C19.65 8.9 16.75 13.1 16.05 18H47.9501C47.2001 13.1 44.2 8.9 39.8 6.45ZM25.6 14L25.4 14.2C25.15 14.45 24.8001 14.6 24.4501 14.6H24.5C23.75 14.6 23.15 14 23.15 13.3V13.25C23.15 12.9 23.3 12.55 23.55 12.3C24 11.75 24.85 11.65 25.4 12.1C26.05 12.55 26.1 13.4 25.6 14ZM39.3 14.5C38.55 14.55 37.9501 13.95 37.9501 13.2V13.15C37.9501 12.8 38.1 12.45 38.35 12.2C38.85 11.7 39.7 11.7 40.25 12.2C40.5 12.45 40.6501 12.8 40.6501 13.15C40.6501 13.95 40.05 14.5 39.3 14.5ZM52.85 29H50.75C50.65 29.05 50.55 29.15 50.55 29.3V62.55C50.55 62.7 50.65 62.8 50.8 62.8H53C55.55 62.8 57.6 60.7 57.6 58.2C57.6 58.2 57.55 27.65 57.6 26.5C57.65 25.3 57.35 26.15 57.25 26.4C56.5 28 54.8501 29.05 52.9501 29.05H52.85V29Z" fill="white"/>
<path d="M31.65 34.35C32.5337 34.35 33.25 33.6336 33.25 32.75C33.25 31.8663 32.5337 31.15 31.65 31.15C30.7664 31.15 30.05 31.8663 30.05 32.75C30.05 33.6336 30.7664 34.35 31.65 34.35Z" fill="white"/>
</svg>
