<svg width="65" height="64" viewBox="0 0 65 64" fill="none" xmlns="http://www.w3.org/2000/svg">
<path d="M59.25 16.75L59.4 16.65C59.1 16.1 58.65 15.6 58.2 15.35L34.05 1.45C33.65 1.2 33.1 1.1 32.5 1.1C31.9 1.1 31.35 1.25 30.95 1.45L6.95 15.4C6.1 15.9 5.5 17.15 5.5 18.1V45.95C5.5 46.5 5.6 47.1 5.95 47.65L5.85 47.7C6.1 48.1 6.45 48.45 6.8 48.65L30.9 62.6C31.3 62.85 31.85 62.95 32.45 62.95C33.05 62.95 33.6 62.8 34 62.6L58 48.65C58.85 48.15 59.45 46.9 59.45 45.95V18.05C59.5 17.65 59.45 17.2 59.25 16.75ZM32.5 44.25C37.05 44.25 41.05 41.75 43.15 38.05L49.6 41.85C46.2 47.75 39.8 51.75 32.5 51.75C21.6 51.75 12.75 42.9 12.75 32C12.75 21.1 21.6 12.25 32.5 12.25C39.85 12.25 46.25 16.3 49.65 22.25L43.15 26C41.05 22.25 37.05 19.75 32.5 19.75C25.75 19.75 20.25 25.25 20.25 32C20.25 38.75 25.75 44.25 32.5 44.25Z" fill="#F4F8F9"/>
</svg>
