<svg width="64" height="64" viewBox="0 0 64 64" fill="none" xmlns="http://www.w3.org/2000/svg">
<path fill-rule="evenodd" clip-rule="evenodd" d="M56.9115 52.2975C56.014 51.5585 55.097 50.837 54.2575 50.035C53.3225 49.1425 52.735 48.063 52.863 46.696C52.9365 45.9095 52.755 45.233 51.8065 44.97C52.0295 44.393 52.2385 44.006 52.323 43.5935C52.417 43.1335 52.412 42.65 52.425 42.1765C52.557 37.1965 50.758 32.831 48.0935 28.759C46.8665 26.885 45.585 25.0445 44.277 23.226C42.231 20.382 41.4975 17.187 41.4605 13.7355C41.4395 12.1422 41.2584 10.5551 40.92 8.998C40.2635 5.978 38.6455 3.6165 35.711 2.35C33.4625 1.379 31.135 1.1865 28.7605 1.808C25.31 2.7105 23.2235 5.275 23.2625 8.852C23.2995 12.2945 23.471 15.7415 23.7235 19.176C23.8675 21.1225 23.5675 22.802 22.276 24.346C21.034 25.8305 19.923 27.432 18.847 29.0445C18.2325 29.9665 17.6885 30.971 17.3085 32.01C16.2735 34.8415 15.322 37.6965 13.6705 40.26C13.0585 41.21 12.989 42.273 13.4235 43.3595C13.536 43.641 13.605 44.074 13.468 44.3005C12.291 46.254 10.9625 47.973 8.43497 48.348C6.44697 48.6435 6.34897 49.005 6.40947 51.0545C6.45947 52.723 6.43997 54.407 6.26947 56.065C6.08797 57.8425 6.27347 58.3255 7.99047 58.7515C11.9525 59.7355 15.947 60.575 19.7365 62.1785C21.35 62.861 22.969 62.624 24.2685 61.297C25.625 59.9115 27.339 59.3695 29.1905 59.3675C32.333 59.365 35.4765 59.5165 38.6205 59.552C39.4715 59.562 39.96 59.8785 40.3025 60.6515C40.7225 61.598 41.4325 62.2935 42.525 62.4145C44.6215 62.6455 46.5315 62.3345 48.12 60.735C50.079 58.761 52.338 57.202 54.9275 56.1215C55.6685 55.812 56.3665 55.3255 56.979 54.7975C58.0945 53.8365 58.0355 53.2245 56.9115 52.2975ZM31.213 12.06C31.592 10.7595 32.4815 9.9155 33.8345 9.6595C34.9725 9.4445 35.936 10.0035 36.654 11.2825C37.427 12.6615 37.681 14.1025 37.021 15.6115C36.4795 16.8485 36.2255 16.965 34.9595 16.5455C34.7225 16.467 34.491 16.374 34.071 16.2195C34.425 15.9225 34.648 15.702 34.903 15.5285C35.47 15.1425 35.629 14.5995 35.576 13.9545C35.5065 13.1075 34.8405 12.3575 34.1575 12.367C33.545 12.3755 33.0265 12.9505 32.9575 13.8245C32.9145 14.369 33.005 14.924 33.044 15.619C31.321 15.1075 30.6885 13.8565 31.213 12.06ZM24.838 10.9345C25.475 9.9705 26.4365 9.7775 27.3885 10.4225C28.403 11.1105 29.162 13.0505 28.77 14.2105C28.6275 14.6325 28.2065 14.9605 27.912 15.331L27.61 15.144C27.495 14.5175 27.472 13.8515 27.2315 13.2775C27.0795 12.9135 26.603 12.6855 26.272 12.3965C25.961 12.766 25.4255 13.118 25.3935 13.5105C25.3495 14.0525 25.632 14.6505 25.878 15.176C26.0335 15.5065 26.3785 15.7485 26.7345 16.134L25.7735 16.889C24.2645 15.539 23.816 12.479 24.838 10.9345ZM43.67 43.0375C43.5685 44.3395 43.42 44.394 42.111 44.5865C41.1815 44.7225 40.9315 44.9645 40.8845 46.0685C40.8332 47.3601 40.8312 48.6532 40.8785 49.945C40.909 50.83 40.61 51.524 40.001 52.1415C36.619 55.5695 32.5785 57.194 27.745 56.6045C25.66 56.35 24.297 55.081 23.1965 53.285C23.6865 53.1035 24.049 52.9815 24.4025 52.838C25.9635 52.203 26.2555 50.8605 25.009 49.6995C24.067 48.821 23.016 48.058 22.0055 47.2535C21.0285 46.476 20.0385 45.7145 19.06 44.939C18.226 44.2775 17.9075 43.425 17.8875 42.345C17.8405 39.754 18.3735 37.33 19.4565 34.9715C20.4225 32.867 21.171 30.663 22.076 28.529C22.5435 27.428 23.029 26.3015 23.715 25.335C24.3745 24.408 24.782 23.5005 24.709 22.365C24.667 21.727 24.701 21.084 24.701 20.4435L25.0545 20.2675C25.625 20.76 26.2055 21.242 26.766 21.747C28.7885 23.57 30.712 23.6535 32.9255 22.082C33.8695 21.4115 34.8905 20.847 35.889 20.256C36.1375 20.109 36.435 20.0445 36.856 19.887C37.9315 22.42 38.987 24.9035 40.0435 27.387C40.5795 28.649 41.0095 29.9705 41.6755 31.1605C43.011 33.548 43.7215 36.067 43.7105 38.7965C43.7045 40.2115 43.779 41.6315 43.67 43.0375Z" fill="white"/>
</svg>
