<svg width="65" height="64" viewBox="0 0 65 64" fill="none" xmlns="http://www.w3.org/2000/svg">
<g clip-path="url(#clip0_11_57)">
<path d="M33.979 0.412498C33.5197 0.149359 32.9996 0.0109177 32.4702 0.0109177C31.9409 0.0109177 31.4208 0.149359 30.9615 0.412498L6.0515 14.88C5.104 15.416 4.5715 16.4275 4.5715 17.5V46.494C4.5715 47.5655 5.163 48.5775 6.0505 49.114L30.9605 63.581C31.4199 63.8442 31.9401 63.9827 32.4695 63.9827C32.9989 63.9827 33.5191 63.8442 33.9785 63.581L58.8885 49.1135C59.8355 48.5775 60.3675 47.5655 60.3675 46.4935V17.5C60.3675 16.428 59.776 15.4165 58.8885 14.88L33.979 0.412498Z" fill="#ECEFF3"/>
<path d="M58.9485 14.88L33.9205 0.412498C33.6747 0.287589 33.4169 0.187913 33.151 0.114998L5.105 48.399C5.33697 48.6842 5.61743 48.9262 5.9335 49.114L30.962 63.581C31.672 63.9975 32.5 64.117 33.2695 63.8785L59.5995 15.416C59.4266 15.1896 59.2038 15.0062 58.9485 14.88Z" fill="#B5C3D8"/>
<path d="M58.949 49.1125C59.659 48.696 60.1915 47.9815 60.428 47.2075L33.033 0.0539997C32.323 -0.0650003 31.5535 -0.00550032 30.903 0.4115L6.052 14.8195L32.855 63.997C33.21 63.937 33.625 63.818 33.98 63.6395L58.949 49.1125Z" fill="#F4F8F9"/>
</g>
<defs>
<clipPath id="clip0_11_57">
<rect width="64" height="64" fill="white" transform="translate(0.5)"/>
</clipPath>
</defs>
</svg>
