<svg width="65" height="64" viewBox="0 0 65 64" fill="none" xmlns="http://www.w3.org/2000/svg">
<path d="M25.165 31H39.7445C43.803 31 47 27.566 47 23.4905V9.5915C47 5.6355 43.684 2.6635 39.7225 2.0035C37.2155 1.586 34.625 1.396 32.129 1.408C29.634 1.4195 27.323 1.632 25.2265 2.0035C19.049 3.094 18 5.379 18 9.5915V15H32.5V17H12.388C8.14599 17 4.43099 19.554 3.26949 24.4055C1.92899 29.9655 1.86949 33.365 3.26949 39.1705C4.30699 43.4915 6.78449 46.5 11.027 46.5H16V39.976C16 35.1575 20.214 31 25.165 31ZM24.246 11.445C22.733 11.445 21.507 10.2055 21.507 8.6725C21.507 7.133 22.7325 5.882 24.246 5.882C25.7535 5.882 26.9855 7.133 26.9855 8.6725C26.985 10.2055 25.753 11.445 24.246 11.445ZM61.6405 24.4055C60.5915 20.1815 58.589 17 54.341 17H49V23.4905C49 28.5155 44.603 32.5 39.7445 32.5H25.165C21.171 32.5 18 36.163 18 40.163V54.063C18 58.018 21.3725 60.345 25.231 61.48C29.852 62.8385 34.228 63.084 39.7565 61.48C43.431 60.4155 47 58.2745 47 54.063V48.5H32.5V46.5H54.341C58.583 46.5 60.1645 43.612 61.6405 39.17C63.164 34.5975 63.0985 30.2705 61.6405 24.4055ZM40.663 52.2085C42.1765 52.2085 43.4025 53.448 43.4025 54.982C43.4025 56.52 42.177 57.7715 40.663 57.7715C39.1555 57.7715 37.924 56.5205 37.924 54.982C37.924 53.448 39.1555 52.2085 40.663 52.2085Z" fill="#F4F8F9"/>
</svg>
