<svg width="65" height="64" viewBox="0 0 65 64" fill="none" xmlns="http://www.w3.org/2000/svg">
<g clip-path="url(#clip0_11_37)">
<path d="M31.98 0.120997C31.864 0.188497 31.3785 0.884997 30.9 1.6695C29.7 3.6395 29.687 3.6405 28.075 1.9445C27.026 0.840497 26.7725 0.638497 26.435 0.640997C26.215 0.641997 25.9375 0.716997 25.8175 0.806997C25.6975 0.896997 25.3595 1.613 25.0655 2.3985C24.3925 4.1985 24.3605 4.256 23.9875 4.3285C23.7575 4.3715 23.316 4.125 22.256 3.364C21.4735 2.8015 20.706 2.3415 20.5505 2.3415C19.905 2.3415 19.723 2.6945 19.4155 4.5415C19.0255 6.89 19.0385 6.882 16.9215 5.9205C16.0665 5.5325 15.2565 5.2155 15.12 5.2155C14.983 5.2155 14.724 5.362 14.545 5.5415C14.219 5.8675 14.2185 5.869 14.3075 7.6645L14.3965 9.462L14.0565 9.644C13.7555 9.805 13.548 9.7855 12.2145 9.47C10.4745 9.059 10.1065 9.07 9.75449 9.545L9.49649 9.8915L9.84249 11.3735C10.0325 12.1885 10.215 12.9735 10.2495 13.117C10.283 13.2605 10.2245 13.49 10.1195 13.627C9.94549 13.851 9.76099 13.872 8.14949 13.847C5.42349 13.804 5.26899 14.038 6.39449 16.497C6.75349 17.277 7.04699 17.987 7.04699 18.072C7.04699 18.521 6.68849 18.684 5.14999 18.9355C4.28899 19.0755 3.54099 19.1905 3.48699 19.1905C3.43349 19.1905 3.27199 19.308 3.12849 19.4515C2.65999 19.9195 2.79299 20.3595 3.85499 21.8585C5.17799 23.726 5.17599 23.7335 2.98999 24.569C0.504485 25.52 0.453985 25.754 2.34649 27.549C4.10899 29.221 4.11149 29.1965 2.11599 30.451C0.603986 31.4 0.580986 31.423 0.542486 31.938C0.495986 32.5645 0.506985 32.5755 2.31149 33.678C4.09649 34.768 4.09649 34.801 2.34499 36.458C0.460986 38.24 0.518986 38.5 3.00649 39.4385C5.17999 40.2585 5.18299 40.2685 3.85749 42.1355C3.10649 43.194 2.86699 43.6355 2.86699 43.962C2.86699 44.5735 3.18549 44.7295 5.08699 45.049C6.68999 45.319 7.04699 45.4775 7.04699 45.9195C7.04699 46.0105 6.75299 46.7255 6.39349 47.508C5.27549 49.943 5.40299 50.1455 8.04849 50.1455C10.5135 50.1455 10.448 50.0705 9.91699 52.2925C9.51699 53.9675 9.51049 54.2885 9.87299 54.65C10.15 54.928 10.673 54.897 12.308 54.5055C13.5575 54.2075 13.7765 54.187 14.066 54.3415L14.396 54.5185L14.3075 56.3155C14.2185 58.112 14.219 58.113 14.545 58.4395C14.724 58.6195 14.987 58.7655 15.1275 58.7655C15.2685 58.7655 16.079 58.4505 16.9295 58.0635C19.0395 57.1055 19.0265 57.0975 19.416 59.4385C19.7245 61.294 19.9045 61.6385 20.563 61.6385C20.7265 61.6385 21.478 61.1985 22.233 60.6595C23.56 59.713 23.904 59.5645 24.2575 59.7895C24.3485 59.847 24.7025 60.6245 25.0435 61.517C25.545 62.8295 25.7285 63.172 26.008 63.305C26.539 63.56 26.868 63.355 28.117 61.995C29.625 60.352 29.687 60.36 30.918 62.355C32.278 64.558 32.63 64.553 34.024 62.3105C35.225 60.3785 35.211 60.3795 36.8345 62.0755C37.913 63.2005 38.1425 63.3805 38.506 63.3805C38.738 63.3805 39.0155 63.293 39.121 63.1865C39.228 63.08 39.581 62.2935 39.905 61.4385C40.2295 60.5835 40.5655 59.8385 40.6525 59.7835C40.996 59.5655 41.3515 59.7185 42.6765 60.6595C43.4565 61.2135 44.1905 61.6395 44.365 61.6395C45.013 61.6395 45.247 61.1795 45.516 59.372C45.746 57.831 45.793 57.683 46.096 57.5295C46.394 57.3785 46.573 57.4295 47.971 58.0645C48.8215 58.4495 49.6325 58.7655 49.773 58.7655C49.914 58.7655 50.181 58.6145 50.365 58.4295L50.701 58.0945L50.609 56.3705C50.5205 54.7255 50.529 54.6365 50.791 54.399C51.061 54.155 51.089 54.156 52.5985 54.501C54.4265 54.9185 54.7675 54.9295 55.111 54.586C55.4465 54.251 55.443 54.177 54.984 52.241C54.469 50.068 54.4 50.146 56.874 50.146C58.561 50.146 58.749 50.1215 58.964 49.8845C59.323 49.488 59.2375 49.0335 58.516 47.495C58.1515 46.72 57.856 46.015 57.8585 45.9275C57.8705 45.4705 58.23 45.314 59.891 45.044C60.9075 44.8795 61.6675 44.689 61.8055 44.564C62.267 44.1475 62.0975 43.605 61.044 42.1275C59.723 40.276 59.729 40.2585 61.8435 39.479C64.3755 38.546 64.448 38.235 62.553 36.434C60.798 34.7665 60.797 34.7755 62.7195 33.5955C65.0435 32.169 65.047 31.8475 62.7605 30.428C60.794 29.208 60.7955 29.225 62.558 27.5515C64.448 25.755 64.397 25.52 61.9105 24.569C59.7165 23.7295 59.7095 23.709 61.043 21.879C61.837 20.789 62.034 20.4275 62.034 20.054C62.034 19.401 61.741 19.255 59.816 18.944C58.208 18.684 57.854 18.5265 57.854 18.069C57.854 17.982 58.148 17.282 58.5075 16.5125C59.2105 15.006 59.3095 14.4025 58.9115 14.0425C58.6975 13.849 58.4115 13.821 56.878 13.8465C55.274 13.8735 55.069 13.8505 54.8465 13.627C54.6035 13.383 54.6065 13.3485 54.9855 11.7645C55.451 9.8245 55.453 9.777 55.0705 9.4175C54.682 9.0525 54.4395 9.0585 52.6575 9.478C51.359 9.784 51.144 9.8045 50.849 9.6465L50.514 9.4665L50.6065 7.6755L50.6995 5.8855L50.3645 5.5505C50.18 5.3655 49.919 5.2155 49.783 5.2155C49.648 5.2155 48.841 5.5355 47.9915 5.926C46.5725 6.579 46.42 6.6225 46.113 6.462C45.807 6.302 45.756 6.1435 45.4945 4.5475C45.193 2.701 45.006 2.3415 44.3505 2.3415C44.195 2.3415 43.424 2.804 42.6375 3.369C41.3455 4.297 41.1725 4.385 40.8505 4.2725C40.584 4.1795 40.429 3.9775 40.24 3.473C40.1 3.102 39.8315 2.387 39.643 1.8845C39.262 0.870497 39.0495 0.643497 38.479 0.643497C38.1605 0.643497 37.8725 0.872497 36.839 1.9455C35.214 3.633 35.2085 3.6325 34.014 1.673C33.5365 0.889997 33.0375 0.190997 32.905 0.119997C32.6065 -0.0400026 32.255 -0.0400026 31.98 0.120997ZM33.46 6.02C34.875 7.027 34.123 9.395 32.388 9.395C30.704 9.395 29.856 7.3665 31.058 6.215C31.737 5.565 32.7095 5.4855 33.46 6.02ZM31.6815 12.2735C32.609 12.626 32.9895 12.4145 35.1075 10.3735L36.6985 8.8385L37.372 8.9285C39.4845 9.2085 43.6855 11.0535 46.0995 12.7615C48.3175 14.3315 51.2655 17.5285 52.522 19.7265L52.7905 20.1975L51.6005 22.8795C50.9455 24.3545 50.4095 25.716 50.4095 25.906C50.4095 26.345 50.6975 27.0395 50.9745 27.269C51.0915 27.3665 52.203 27.9015 53.444 28.458L55.699 29.4705L55.788 30.0445C55.903 30.792 55.918 32.628 55.814 33.1495L55.7325 33.5575H54.445C52.9515 33.5575 53.067 33.424 52.986 35.2555C52.927 36.5835 52.606 37.3175 51.876 37.793C50.6875 38.5685 48.724 38.428 47.891 37.508C47.7635 37.366 47.515 36.6555 47.3385 35.928C46.8235 33.801 46.132 32.608 44.742 31.4455C44.303 31.079 43.9445 30.7365 43.9445 30.6845C43.9445 30.6335 44.427 30.227 45.017 29.783C47.166 28.163 48.402 26.277 48.537 24.4095C48.7965 20.8465 45.958 17.526 41.736 16.4495C40.735 16.1945 40.3075 16.1865 27.924 16.1865C20.8955 16.1865 15.144 16.1405 15.144 16.0845C15.144 15.953 16.7065 14.437 17.6265 13.6765C20.1535 11.5875 23.4355 9.944 26.835 9.0665L28.01 8.7615L29.68 10.455C30.5995 11.3865 31.5 12.205 31.6815 12.2735ZM10.65 23.17C11.4195 23.674 11.735 24.94 11.28 25.701C10.5775 26.879 8.79699 26.9285 8.09349 25.79C7.07049 24.1355 9.04099 22.1155 10.65 23.17ZM55.986 23.235C57.999 24.462 56.439 27.4815 54.284 26.528C52.8455 25.8915 52.799 23.925 54.2065 23.208C54.7935 22.908 55.468 22.9185 55.9865 23.2345M16.5815 30.75V38.26H9.94149L9.67849 37.1175C9.16049 34.8675 8.94249 32.5395 9.07299 30.633L9.16399 29.2935L11.4465 28.27C12.8785 27.6285 13.7995 27.139 13.918 26.9575C14.437 26.1655 14.388 25.6 13.659 23.991L13.319 23.24H16.5805V30.75M35.695 23.566C37.1165 23.936 37.8675 24.6885 37.8695 25.7435C37.8705 26.5185 37.487 27.0035 36.5345 27.4335C35.8605 27.7385 35.7535 27.746 31.503 27.7875L27.16 27.8295V23.3695H31.051C34.09 23.3695 35.107 23.4125 35.695 23.566ZM34.228 34.343C34.933 34.539 35.766 35.151 36.193 35.787C36.642 36.4555 36.9045 37.325 37.5265 40.205C38.0515 42.64 38.39 43.435 39.3365 44.471C40.509 45.754 40.2365 45.704 46.0935 45.704C48.8985 45.704 51.1925 45.749 51.1925 45.804C51.1925 45.9025 49.261 48.186 49.1775 48.186C49.1535 48.186 48.1445 47.975 46.9355 47.7165C43.521 46.9875 43.398 47.073 42.6145 50.7325L42.1105 53.0835L41.6555 53.3075C40.8965 53.6825 38.429 54.4535 37.1505 54.7175C35.0365 55.1525 32.7365 55.2985 30.715 55.128C27.2685 54.8355 22.705 53.4985 22.5265 52.728C22.489 52.5645 22.259 51.5065 22.0175 50.376C21.775 49.246 21.4805 48.174 21.3625 47.994C20.7975 47.132 20.2035 47.079 17.589 47.657C16.599 47.877 15.735 48.055 15.669 48.055C15.545 48.055 13.7075 45.9305 13.7075 45.7875C13.7075 45.7425 18.0715 45.6905 23.4055 45.6725L33.103 45.6395L33.138 42.1945C33.163 39.762 33.129 38.696 33.023 38.5695C32.906 38.4275 32.2805 38.3905 30.0175 38.3905H27.16V34.2105L30.4585 34.211C32.2715 34.212 33.9685 34.271 34.228 34.343ZM19.285 50.01C20.827 50.95 20.0875 53.412 18.2635 53.41C16.3935 53.41 15.7 50.97 17.2935 49.997C17.821 49.6755 18.7475 49.682 19.285 50.01ZM47.525 50.113C48.281 50.667 48.5325 51.8195 48.0645 52.588C46.8345 54.605 43.7585 53.0015 44.786 50.8785C45.291 49.836 46.6335 49.4595 47.525 50.113Z" fill="#F4F8F9"/>
</g>
<defs>
<clipPath id="clip0_11_37">
<rect width="64" height="64" fill="white" transform="translate(0.5)"/>
</clipPath>
</defs>
</svg>
