<svg width="64" height="64" viewBox="0 0 64 64" fill="none" xmlns="http://www.w3.org/2000/svg">
<g clip-path="url(#clip0_33_18)">
<path fill-rule="evenodd" clip-rule="evenodd" d="M45.3836 63.563C45.8928 63.7616 46.4375 63.8532 46.9837 63.8322C47.53 63.8112 48.066 63.6781 48.5586 63.441L61.7351 57.1005C62.4136 56.7738 62.9862 56.2622 63.3869 55.6246C63.7876 54.9869 64.0001 54.2491 64.0001 53.496V10.5045C64.0002 9.75131 63.7877 9.01337 63.387 8.37562C62.9863 7.73786 62.4137 7.22619 61.7351 6.89949L48.5586 0.559995C47.814 0.201748 46.9765 0.0837959 46.162 0.222464C45.3474 0.361131 44.5961 0.749561 44.0121 1.33399L18.7871 24.347L7.80006 16.0065C7.30443 15.6302 6.6927 15.4392 6.07101 15.4668C5.44933 15.4944 4.85691 15.7388 4.39656 16.1575L0.872557 19.363C0.597931 19.6128 0.378464 19.9171 0.228194 20.2566C0.0779244 20.596 0.000161074 20.9631 -0.000121299 21.3343C-0.000403671 21.7056 0.0768011 22.0728 0.226554 22.4124C0.376307 22.7521 0.595312 23.0568 0.869557 23.307L10.3981 32L0.870057 40.6935C0.595961 40.9437 0.377088 41.2484 0.227428 41.588C0.0777677 41.9277 0.000613062 42.2948 0.000895405 42.6659C0.00117775 43.037 0.0788909 43.404 0.229068 43.7434C0.379244 44.0828 0.598581 44.3872 0.873057 44.637L4.39706 47.8425C4.8573 48.2614 5.4497 48.5059 6.07142 48.5336C6.69313 48.5612 7.30491 48.3703 7.80056 47.994L18.7876 39.654L44.0126 62.6665C44.4026 63.0572 44.8692 63.3625 45.3836 63.563ZM48.0096 17.4715L28.8701 32L48.0101 46.529L48.0096 17.4715Z" fill="white"/>
</g>
<defs>
<clipPath id="clip0_33_18">
<rect width="64" height="64" fill="white"/>
</clipPath>
</defs>
</svg>
